# Blender 3.6.0
# www.blender.org
mtllib Cylinder.mtl
o Cylinder
v 0.000000 1.000000 1.000000
v 0.000000 0.000000 1.000000
v 0.195090 0.000000 0.980785
v 0.382683 0.000000 0.923880
v 0.555570 0.000000 0.831470
v 0.707107 0.000000 0.707107
v 0.831470 0.000000 0.555570
v 0.923880 0.000000 0.382683
v 0.980785 0.000000 0.195090
v 1.000000 0.000000 0.000000
v 0.195090 1.000000 0.980785
v 0.382683 1.000000 0.923880
v 0.555570 1.000000 0.831470
v 0.707107 1.000000 0.707107
v 0.831470 1.000000 0.555570
v 0.923880 1.000000 0.382683
v 0.980785 1.000000 0.195090
v 1.000000 1.000000 0.000000
vn 0.3827 -0.0000 0.9239
vn 0.1951 -0.0000 0.9808
vn 0.5556 -0.0000 0.8315
vn 0.7071 -0.0000 0.7071
vn 0.8315 -0.0000 0.5556
vn 0.9239 -0.0000 0.3827
vn 0.9808 -0.0000 0.1951
vn 0.9952 -0.0000 0.0980
vn 0.0980 -0.0000 0.9952
vt 0.000000 0.000000
s 1
f 4/1/1 12/1/1 11/1/2 3/1/2
f 5/1/3 13/1/3 12/1/1 4/1/1
f 6/1/4 14/1/4 13/1/3 5/1/3
f 7/1/5 15/1/5 14/1/4 6/1/4
f 8/1/6 16/1/6 15/1/5 7/1/5
f 9/1/7 17/1/7 16/1/6 8/1/6
f 10/1/8 18/1/8 17/1/7 9/1/7
f 3/1/2 11/1/2 1/1/9 2/1/9
