# Blender 3.6.0
# www.blender.org
mtllib Circle.mtl
o Circle
v 0.000000 0.000000 0.000000
v 0.000000 0.000000 1.000000
v 0.195090 0.000000 0.980785
v 0.382683 0.000000 0.923880
v 0.555570 0.000000 0.831470
v 0.707107 0.000000 0.707107
v 0.831470 0.000000 0.555570
v 0.923880 0.000000 0.382683
v 0.980785 0.000000 0.195090
v 1.000000 0.000000 0.000000
vn -0.0000 1.0000 -0.0000
vt 0.500000 0.500000
vt 0.500000 0.000000
vt 0.597545 0.009607
vt 0.691342 0.038060
vt 0.777785 0.084265
vt 0.853553 0.146447
vt 0.915735 0.222215
vt 0.961940 0.308658
vt 0.990393 0.402455
vt 1.000000 0.500000
s 0
f 1/1/1 2/2/1 3/3/1
f 1/1/1 3/3/1 4/4/1
f 1/1/1 4/4/1 5/5/1
f 1/1/1 5/5/1 6/6/1
f 1/1/1 6/6/1 7/7/1
f 1/1/1 7/7/1 8/8/1
f 1/1/1 8/8/1 9/9/1
f 1/1/1 9/9/1 10/10/1
