# Blender 3.6.0
# www.blender.org
mtllib Sphere.mtl
o Sphere
v 0.000000 1.000000 0.000000
v 0.195090 0.980785 0.000000
v 0.382683 0.923880 0.000000
v 0.555570 0.831470 0.000000
v 0.707107 0.707107 -0.000000
v 0.831469 0.555570 0.000000
v 0.923879 0.382683 -0.000000
v 0.980785 0.195090 0.000000
v 1.000000 0.000000 0.000000
v 0.191342 0.980785 0.038060
v 0.375330 0.923880 0.074658
v 0.544895 0.831470 0.108386
v 0.693520 0.707107 0.137950
v 0.815493 0.555570 0.162212
v 0.906127 0.382683 0.180240
v 0.961940 0.195090 0.191342
v 0.980785 0.000000 0.195090
v 0.180240 0.980785 0.074658
v 0.353553 0.923880 0.146447
v 0.513280 0.831470 0.212608
v 0.653281 0.707107 0.270598
v 0.768178 0.555570 0.318190
v 0.853553 0.382683 0.353553
v 0.906127 0.195090 0.375330
v 0.923879 0.000000 0.382683
v 0.162212 0.980785 0.108386
v 0.318190 0.923880 0.212608
v 0.461940 0.831470 0.308658
v 0.587938 0.707107 0.392847
v 0.691341 0.555570 0.461940
v 0.768178 0.382683 0.513280
v 0.815493 0.195090 0.544895
v 0.831469 0.000000 0.555570
v 0.137950 0.980785 0.137950
v 0.270598 0.923880 0.270598
v 0.392847 0.831470 0.392847
v 0.500000 0.707107 0.500000
v 0.587938 0.555570 0.587938
v 0.653281 0.382683 0.653281
v 0.693520 0.195090 0.693520
v 0.707106 0.000000 0.707107
v 0.108386 0.980785 0.162212
v 0.212607 0.923880 0.318190
v 0.308658 0.831470 0.461940
v 0.392847 0.707107 0.587938
v 0.461940 0.555570 0.691342
v 0.513280 0.382683 0.768178
v 0.544895 0.195090 0.815493
v 0.555570 0.000000 0.831469
v 0.074658 0.980785 0.180240
v 0.146447 0.923880 0.353553
v 0.212607 0.831470 0.513280
v 0.270598 0.707107 0.653281
v 0.318189 0.555570 0.768178
v 0.353553 0.382683 0.853553
v 0.375330 0.195090 0.906127
v 0.382683 0.000000 0.923879
v 0.038060 0.980785 0.191342
v 0.074658 0.923880 0.375330
v 0.108386 0.831470 0.544895
v 0.137950 0.707107 0.693520
v 0.162212 0.555570 0.815493
v 0.180240 0.382683 0.906127
v 0.191342 0.195090 0.961939
v 0.195090 0.000000 0.980785
v -0.000000 0.980785 0.195090
v -0.000000 0.923880 0.382683
v -0.000000 0.831470 0.555570
v -0.000000 0.707107 0.707107
v -0.000000 0.555570 0.831469
v 0.000000 0.382683 0.923879
v -0.000000 0.195090 0.980785
v -0.000000 0.000000 0.999999
vn 0.7084 0.7023 0.0698
vn 0.5589 0.8274 0.0550
vn 0.5490 0.8286 0.1092
vn 0.6965 0.7041 0.1385
vn 0.8305 0.5509 0.0818
vn 0.8173 0.5528 0.1626
vn 0.9210 0.3790 0.0907
vn 0.9070 0.3805 0.1804
vn 0.9765 0.1930 0.0962
vn 0.9622 0.1939 0.1914
vn 0.9904 0.0975 0.0976
vn 0.9761 0.0980 0.1942
vn 0.2009 0.9794 0.0198
vn 0.0629 0.9960 0.0629
vn 0.1971 0.9796 0.0392
vn 0.3876 0.9210 0.0382
vn 0.3804 0.9217 0.0757
vn 0.9063 0.1939 0.3754
vn 0.9194 0.0980 0.3808
vn 0.1857 0.9796 0.0769
vn 0.3584 0.9217 0.1484
vn 0.5172 0.8286 0.2142
vn 0.6561 0.7041 0.2718
vn 0.7699 0.5528 0.3189
vn 0.8544 0.3805 0.3539
vn 0.5905 0.7041 0.3945
vn 0.6929 0.5528 0.4630
vn 0.7689 0.3805 0.5138
vn 0.8157 0.1939 0.5450
vn 0.8275 0.0980 0.5529
vn 0.1671 0.9796 0.1117
vn 0.3225 0.9217 0.2155
vn 0.4654 0.8286 0.3110
vn 0.1421 0.9796 0.1421
vn 0.2743 0.9217 0.2743
vn 0.3958 0.8286 0.3958
vn 0.5021 0.7041 0.5021
vn 0.5893 0.5528 0.5893
vn 0.6539 0.3805 0.6539
vn 0.6937 0.1939 0.6937
vn 0.7037 0.0980 0.7037
vn 0.4630 0.5528 0.6929
vn 0.5138 0.3805 0.7689
vn 0.5450 0.1939 0.8157
vn 0.5529 0.0980 0.8275
vn 0.1117 0.9796 0.1671
vn 0.2155 0.9217 0.3225
vn 0.3110 0.8286 0.4654
vn 0.3945 0.7041 0.5905
vn 0.0769 0.9796 0.1857
vn 0.1484 0.9217 0.3584
vn 0.2142 0.8286 0.5172
vn 0.2718 0.7041 0.6561
vn 0.3189 0.5528 0.7699
vn 0.3539 0.3805 0.8544
vn 0.3754 0.1939 0.9063
vn 0.3808 0.0980 0.9194
vn 0.1626 0.5528 0.8173
vn 0.1804 0.3805 0.9070
vn 0.1914 0.1939 0.9622
vn 0.1942 0.0980 0.9761
vn 0.0392 0.9796 0.1971
vn 0.0757 0.9217 0.3804
vn 0.1092 0.8286 0.5490
vn 0.1385 0.7041 0.6965
vn 0.0382 0.9210 0.3876
vn 0.0550 0.8274 0.5589
vn 0.0698 0.7023 0.7084
vn 0.0818 0.5509 0.8305
vn 0.0907 0.3790 0.9210
vn 0.0962 0.1930 0.9765
vn 0.0975 0.0975 0.9904
vn 0.0198 0.9794 0.2009
vt 0.500000 0.750000
vt 0.500000 0.812500
vt 0.468750 0.812500
vt 0.468750 0.750000
vt 0.500000 0.687500
vt 0.468750 0.687500
vt 0.500000 0.625000
vt 0.468750 0.625000
vt 0.500000 0.562500
vt 0.468750 0.562500
vt 0.500000 0.500000
vt 0.468750 0.500000
vt 0.500000 0.937500
vt 0.484375 1.000000
vt 0.468750 0.937500
vt 0.500000 0.875000
vt 0.468750 0.875000
vt 0.437500 0.562500
vt 0.437500 0.500000
vt 0.453125 1.000000
vt 0.437500 0.937500
vt 0.437500 0.875000
vt 0.437500 0.812500
vt 0.437500 0.750000
vt 0.437500 0.687500
vt 0.437500 0.625000
vt 0.406250 0.750000
vt 0.406250 0.687500
vt 0.406250 0.625000
vt 0.406250 0.562500
vt 0.406250 0.500000
vt 0.421875 1.000000
vt 0.406250 0.937500
vt 0.406250 0.875000
vt 0.406250 0.812500
vt 0.375000 0.937500
vt 0.375000 0.875000
vt 0.375000 0.812500
vt 0.375000 0.750000
vt 0.375000 0.687500
vt 0.375000 0.625000
vt 0.375000 0.562500
vt 0.375000 0.500000
vt 0.390625 1.000000
vt 0.343750 0.687500
vt 0.343750 0.625000
vt 0.343750 0.562500
vt 0.343750 0.500000
vt 0.359375 1.000000
vt 0.343750 0.937500
vt 0.343750 0.875000
vt 0.343750 0.812500
vt 0.343750 0.750000
vt 0.312500 0.937500
vt 0.312500 0.875000
vt 0.312500 0.812500
vt 0.312500 0.750000
vt 0.312500 0.687500
vt 0.312500 0.625000
vt 0.312500 0.562500
vt 0.312500 0.500000
vt 0.328125 1.000000
vt 0.281250 0.687500
vt 0.281250 0.625000
vt 0.281250 0.562500
vt 0.281250 0.500000
vt 0.296875 1.000000
vt 0.281250 0.937500
vt 0.281250 0.875000
vt 0.281250 0.812500
vt 0.281250 0.750000
vt 0.250000 0.875000
vt 0.250000 0.812500
vt 0.250000 0.750000
vt 0.250000 0.687500
vt 0.250000 0.625000
vt 0.250000 0.562500
vt 0.250000 0.500000
vt 0.265625 1.000000
vt 0.250000 0.937500
s 1
f 5/1/1 4/2/2 12/3/3 13/4/4
f 6/5/5 5/1/1 13/4/4 14/6/6
f 7/7/7 6/5/5 14/6/6 15/8/8
f 8/9/9 7/7/7 15/8/8 16/10/10
f 9/11/11 8/9/9 16/10/10 17/12/12
f 2/13/13 1/14/14 10/15/15
f 3/16/16 2/13/13 10/15/15 11/17/17
f 4/2/2 3/16/16 11/17/17 12/3/3
f 17/12/12 16/10/10 24/18/18 25/19/19
f 10/15/15 1/20/14 18/21/20
f 11/17/17 10/15/15 18/21/20 19/22/21
f 12/3/3 11/17/17 19/22/21 20/23/22
f 13/4/4 12/3/3 20/23/22 21/24/23
f 14/6/6 13/4/4 21/24/23 22/25/24
f 15/8/8 14/6/6 22/25/24 23/26/25
f 16/10/10 15/8/8 23/26/25 24/18/18
f 22/25/24 21/24/23 29/27/26 30/28/27
f 23/26/25 22/25/24 30/28/27 31/29/28
f 24/18/18 23/26/25 31/29/28 32/30/29
f 25/19/19 24/18/18 32/30/29 33/31/30
f 18/21/20 1/32/14 26/33/31
f 19/22/21 18/21/20 26/33/31 27/34/32
f 20/23/22 19/22/21 27/34/32 28/35/33
f 21/24/23 20/23/22 28/35/33 29/27/26
f 27/34/32 26/33/31 34/36/34 35/37/35
f 28/35/33 27/34/32 35/37/35 36/38/36
f 29/27/26 28/35/33 36/38/36 37/39/37
f 30/28/27 29/27/26 37/39/37 38/40/38
f 31/29/28 30/28/27 38/40/38 39/41/39
f 32/30/29 31/29/28 39/41/39 40/42/40
f 33/31/30 32/30/29 40/42/40 41/43/41
f 26/33/31 1/44/14 34/36/34
f 39/41/39 38/40/38 46/45/42 47/46/43
f 40/42/40 39/41/39 47/46/43 48/47/44
f 41/43/41 40/42/40 48/47/44 49/48/45
f 34/36/34 1/49/14 42/50/46
f 35/37/35 34/36/34 42/50/46 43/51/47
f 36/38/36 35/37/35 43/51/47 44/52/48
f 37/39/37 36/38/36 44/52/48 45/53/49
f 38/40/38 37/39/37 45/53/49 46/45/42
f 43/51/47 42/50/46 50/54/50 51/55/51
f 44/52/48 43/51/47 51/55/51 52/56/52
f 45/53/49 44/52/48 52/56/52 53/57/53
f 46/45/42 45/53/49 53/57/53 54/58/54
f 47/46/43 46/45/42 54/58/54 55/59/55
f 48/47/44 47/46/43 55/59/55 56/60/56
f 49/48/45 48/47/44 56/60/56 57/61/57
f 42/50/46 1/62/14 50/54/50
f 55/59/55 54/58/54 62/63/58 63/64/59
f 56/60/56 55/59/55 63/64/59 64/65/60
f 57/61/57 56/60/56 64/65/60 65/66/61
f 50/54/50 1/67/14 58/68/62
f 51/55/51 50/54/50 58/68/62 59/69/63
f 52/56/52 51/55/51 59/69/63 60/70/64
f 53/57/53 52/56/52 60/70/64 61/71/65
f 54/58/54 53/57/53 61/71/65 62/63/58
f 60/70/64 59/69/63 67/72/66 68/73/67
f 61/71/65 60/70/64 68/73/67 69/74/68
f 62/63/58 61/71/65 69/74/68 70/75/69
f 63/64/59 62/63/58 70/75/69 71/76/70
f 64/65/60 63/64/59 71/76/70 72/77/71
f 65/66/61 64/65/60 72/77/71 73/78/72
f 58/68/62 1/79/14 66/80/73
f 59/69/63 58/68/62 66/80/73 67/72/66
